<svg width="14" height="14" viewBox="0 0 14 14" fill="none" xmlns="http://www.w3.org/2000/svg">
<path d="M7.58268 4.08335H6.41602V6.41669H4.08268V7.58335H6.41602V9.91669H7.58268V7.58335H9.91602V6.41669H7.58268V4.08335ZM6.99935 1.16669C3.77935 1.16669 1.16602 3.78002 1.16602 7.00002C1.16602 10.22 3.77935 12.8334 6.99935 12.8334C10.2193 12.8334 12.8327 10.22 12.8327 7.00002C12.8327 3.78002 10.2193 1.16669 6.99935 1.16669ZM6.99935 11.6667C4.42685 11.6667 2.33268 9.57252 2.33268 7.00002C2.33268 4.42752 4.42685 2.33335 6.99935 2.33335C9.57185 2.33335 11.666 4.42752 11.666 7.00002C11.666 9.57252 9.57185 11.6667 6.99935 11.6667Z" fill="#02A2AF"/>
</svg>
