<svg width="70" height="70" viewBox="0 0 70 70" fill="none" xmlns="http://www.w3.org/2000/svg">
<circle cx="35" cy="35" r="35" fill="#31B7D2"/>
<path d="M27.0201 19.8526L24.4383 17.2708C20.1053 20.5747 17.2528 25.666 17 31.4433H20.6108C20.8816 26.659 23.337 22.4704 27.0201 19.8526ZM49.3892 31.4433H53C52.7292 25.666 49.8766 20.5747 45.5617 17.2708L42.998 19.8526C46.6449 22.4704 49.1184 26.659 49.3892 31.4433ZM45.8325 32.346C45.8325 26.8034 42.8716 22.1635 37.7081 20.9358V19.7081C37.7081 18.2096 36.4985 17 35 17C33.5015 17 32.2919 18.2096 32.2919 19.7081V20.9358C27.1103 22.1635 24.1675 26.7854 24.1675 32.346V41.3731L20.5567 44.984V46.7894H49.4433V44.984L45.8325 41.3731V32.346ZM35 52.2056C35.2528 52.2056 35.4875 52.1876 35.7222 52.1334C36.8957 51.8806 37.8526 51.0863 38.322 50.003C38.5025 49.5697 38.5928 49.1003 38.5928 48.5948H31.3711C31.3892 50.5807 32.996 52.2056 35 52.2056Z" fill="white"/>
</svg>
