<svg width="70" height="70" viewBox="0 0 70 70" fill="none" xmlns="http://www.w3.org/2000/svg">
<circle cx="35" cy="35" r="35" fill="#31B7D2"/>
<path d="M50.9375 50.574V27.4831L38.9836 15.5293H23.0452C20.8536 15.5293 19.0805 17.3224 19.0805 19.5139L19.0605 51.3908C19.0605 53.5824 20.8337 55.3755 23.0252 55.3755H46.9529C47.8494 55.3755 48.6463 55.0766 49.3237 54.5785L40.4978 45.7526C38.9039 46.7886 37.0312 47.4062 34.999 47.4062C29.5002 47.4062 25.0375 42.9435 25.0375 37.4447C25.0375 31.9459 29.5002 27.4831 34.999 27.4831C40.4978 27.4831 44.9606 31.9459 44.9606 37.4447C44.9606 39.4768 44.3429 41.3496 43.3069 42.9235L50.9375 50.574ZM29.0221 37.4447C29.0221 40.7519 31.6918 43.4216 34.999 43.4216C38.3062 43.4216 40.9759 40.7519 40.9759 37.4447C40.9759 34.1375 38.3062 31.4678 34.999 31.4678C31.6918 31.4678 29.0221 34.1375 29.0221 37.4447Z" fill="white"/>
</svg>
