<svg width="70" height="70" viewBox="0 0 70 70" fill="none" xmlns="http://www.w3.org/2000/svg">
<circle cx="35" cy="35" r="35" fill="#FD5E62"/>
<path d="M25.1759 44.5134C23.6079 44.5134 22.2879 44.2734 21.2159 43.7934C20.1599 43.2974 19.3759 42.6894 18.8639 41.9694C18.3679 41.2494 18.1039 40.5294 18.0719 39.8094C18.0719 39.6654 18.1199 39.5454 18.2159 39.4494C18.3279 39.3534 18.4559 39.3054 18.5999 39.3054H21.9119C22.1039 39.3054 22.2559 39.3454 22.3679 39.4254C22.4799 39.4894 22.5839 39.6014 22.6799 39.7614C22.9839 40.5454 23.8239 40.9374 25.1999 40.9374C25.9839 40.9374 26.5919 40.7534 27.0239 40.3854C27.4559 40.0174 27.6719 39.5214 27.6719 38.8974C27.6719 37.6974 26.8719 37.0974 25.2719 37.0974H22.5839C22.4079 37.0974 22.2559 37.0414 22.1279 36.9294C22.0159 36.8014 21.9599 36.6494 21.9599 36.4734V35.0574C21.9599 34.6894 22.0959 34.4174 22.3679 34.2414L26.2319 31.0734H19.6079C19.4479 31.0734 19.3039 31.0174 19.1759 30.9054C19.0639 30.7774 19.0079 30.6334 19.0079 30.4734V28.0974C19.0079 27.9214 19.0639 27.7774 19.1759 27.6654C19.2879 27.5374 19.4319 27.4734 19.6079 27.4734H30.7919C30.9679 27.4734 31.1119 27.5374 31.2239 27.6654C31.3359 27.7774 31.3919 27.9214 31.3919 28.0974V30.2334C31.3919 30.5694 31.2639 30.8334 31.0079 31.0254L27.4559 34.2654L27.6239 34.3134C29.0639 34.5214 30.2079 35.0174 31.0559 35.8014C31.9039 36.5854 32.3279 37.7134 32.3279 39.1854C32.3279 40.2574 32.0159 41.2014 31.3919 42.0174C30.7839 42.8174 29.9359 43.4334 28.8479 43.8654C27.7759 44.2974 26.5519 44.5134 25.1759 44.5134ZM34.9928 35.8734C34.8328 35.8734 34.6888 35.8174 34.5608 35.7054C34.4488 35.5774 34.3928 35.4334 34.3928 35.2734V32.2494C34.3928 32.0734 34.4488 31.9294 34.5608 31.8174C34.6888 31.7054 34.8328 31.6494 34.9928 31.6494H38.1608C38.3368 31.6494 38.4808 31.7054 38.5928 31.8174C38.7208 31.9294 38.7848 32.0734 38.7848 32.2494V35.2734C38.7848 35.4494 38.7208 35.5934 38.5928 35.7054C38.4808 35.8174 38.3368 35.8734 38.1608 35.8734H34.9928ZM34.9928 44.2734C34.8328 44.2734 34.6888 44.2174 34.5608 44.1054C34.4488 43.9774 34.3928 43.8334 34.3928 43.6734V40.6494C34.3928 40.4734 34.4488 40.3294 34.5608 40.2174C34.6888 40.1054 34.8328 40.0494 34.9928 40.0494H38.1608C38.3368 40.0494 38.4808 40.1054 38.5928 40.2174C38.7208 40.3294 38.7848 40.4734 38.7848 40.6494V43.6734C38.7848 43.8494 38.7208 43.9934 38.5928 44.1054C38.4808 44.2174 38.3368 44.2734 38.1608 44.2734H34.9928ZM46.535 44.2734C46.375 44.2734 46.231 44.2174 46.103 44.1054C45.991 43.9774 45.935 43.8334 45.935 43.6734V32.4414L42.719 34.9134C42.591 34.9934 42.471 35.0334 42.359 35.0334C42.167 35.0334 41.999 34.9374 41.855 34.7454L40.367 32.8254C40.303 32.7134 40.271 32.5934 40.271 32.4654C40.271 32.2414 40.359 32.0654 40.535 31.9374L46.103 27.6414C46.263 27.5294 46.447 27.4734 46.655 27.4734H49.823C49.999 27.4734 50.143 27.5294 50.255 27.6414C50.383 27.7534 50.447 27.8974 50.447 28.0734V43.6734C50.447 43.8494 50.383 43.9934 50.255 44.1054C50.143 44.2174 49.999 44.2734 49.823 44.2734H46.535Z" fill="white"/>
</svg>
