<svg width="60" height="60" viewBox="0 0 60 60" fill="none" xmlns="http://www.w3.org/2000/svg">
<circle cx="30" cy="30" r="30" fill="#3B5999"/>
<path d="M39.7303 12.0075L35.062 12C29.8172 12 26.4279 15.4774 26.4279 20.8596V24.9444H21.7341C21.3285 24.9444 21 25.2732 21 25.6788V31.5973C21 32.0029 21.3288 32.3314 21.7341 32.3314H26.4279V47.2656C26.4279 47.6712 26.7563 47.9996 27.1619 47.9996H33.286C33.6916 47.9996 34.0201 47.6708 34.0201 47.2656V32.3314H39.5082C39.9138 32.3314 40.2423 32.0029 40.2423 31.5973L40.2445 25.6788C40.2445 25.4841 40.167 25.2976 40.0295 25.1598C39.8921 25.0219 39.7048 24.9444 39.5101 24.9444H34.0201V21.4816C34.0201 19.8173 34.4167 18.9724 36.5847 18.9724L39.7296 18.9712C40.1348 18.9712 40.4632 18.6424 40.4632 18.2372V12.7415C40.4632 12.3367 40.1352 12.0082 39.7303 12.0075Z" fill="white"/>
</svg>
