<svg width="24" height="25" viewBox="0 0 24 25" fill="none" xmlns="http://www.w3.org/2000/svg">
<path d="M20.7657 0.751465H3.23405C1.44797 0.751465 0 2.19937 0 3.98551V21.5173C0 23.3034 1.44791 24.7513 3.23405 24.7513H11.8806L11.8953 16.1751H9.66721C9.37765 16.1751 9.14264 15.941 9.14152 15.6514L9.13084 12.8869C9.12972 12.5958 9.36544 12.3592 9.65659 12.3592H11.8806V9.68797C11.8806 6.58808 13.7739 4.90016 16.5392 4.90016H18.8083C19.0986 4.90016 19.3341 5.13553 19.3341 5.42591V7.75693C19.3341 8.0472 19.0988 8.28251 18.8086 8.28268L17.4161 8.28333C15.9122 8.28333 15.621 8.99795 15.621 10.0467V12.3592H18.9255C19.2404 12.3592 19.4847 12.6342 19.4476 12.9469L19.1199 15.7113C19.0885 15.9759 18.8642 16.1752 18.5978 16.1752H15.6357L15.621 24.7515H20.7658C22.5519 24.7515 23.9998 23.3036 23.9998 21.5175V3.98551C23.9998 2.19937 22.5519 0.751465 20.7657 0.751465Z" fill="white"/>
</svg>
