<svg width="60" height="60" viewBox="0 0 60 60" fill="none" xmlns="http://www.w3.org/2000/svg">
<circle cx="30" cy="30" r="30" fill="#D84A3F"/>
<path d="M40.8023 28.8012V25.2012H39.0023V28.8012H35.4023V30.6012H39.0023V34.2012H40.8023V30.6012H44.4023V28.8012H40.8023Z" fill="white"/>
<path d="M24.6094 28.8006V32.4006H29.7016C28.9582 34.4958 26.9566 36.0006 24.6094 36.0006C21.6322 36.0006 19.2094 33.5778 19.2094 30.6006C19.2094 27.6234 21.6322 25.2006 24.6094 25.2006C25.9 25.2006 27.142 25.6632 28.1068 26.5038L30.472 23.7894C28.852 22.3782 26.7712 21.6006 24.6094 21.6006C19.6468 21.6006 15.6094 25.638 15.6094 30.6006C15.6094 35.5632 19.6468 39.6006 24.6094 39.6006C29.572 39.6006 33.6094 35.5632 33.6094 30.6006V28.8006H24.6094Z" fill="white"/>
</svg>
