<svg width="70" height="70" viewBox="0 0 70 70" fill="none" xmlns="http://www.w3.org/2000/svg">
<circle cx="35" cy="35" r="35" fill="#83C55B"/>
<path d="M46.6324 19.941C46.4723 19.941 46.3123 19.901 46.1723 19.821C42.3315 17.8406 39.0108 17.0004 35.03 17.0004C31.0692 17.0004 27.3084 17.9406 23.8877 19.821C23.4076 20.081 22.8075 19.901 22.5274 19.4209C22.2674 18.9408 22.4474 18.3207 22.9275 18.0606C26.6483 16.0402 30.7291 15 35.03 15C39.2909 15 43.0116 15.9402 47.0925 18.0406C47.5926 18.3007 47.7726 18.9008 47.5126 19.3809C47.3325 19.741 46.9925 19.941 46.6324 19.941ZM18.0065 30.4432C17.8065 30.4432 17.6064 30.3831 17.4264 30.2631C16.9663 29.9431 16.8663 29.3229 17.1864 28.8628C19.1668 26.0623 21.6873 23.8618 24.6879 22.3215C30.9692 19.0808 39.0108 19.0608 45.3121 22.3015C48.3127 23.8418 50.8332 26.0223 52.8136 28.8028C53.1337 29.2429 53.0337 29.883 52.5736 30.2031C52.1135 30.5232 51.4934 30.4232 51.1733 29.9631C49.3729 27.4425 47.0925 25.4621 44.3919 24.0819C38.6507 21.1413 31.3092 21.1413 25.5881 24.1019C22.8675 25.5021 20.5871 27.5026 18.7867 30.0231C18.6267 30.3031 18.3266 30.4432 18.0065 30.4432ZM30.5091 54.5881C30.249 54.5881 29.989 54.4881 29.8089 54.288C28.0686 52.5477 27.1284 51.4274 25.7881 49.007C24.4078 46.5465 23.6877 43.5458 23.6877 40.3252C23.6877 34.384 28.7687 29.543 35.01 29.543C41.2513 29.543 46.3323 34.384 46.3323 40.3252C46.3323 40.8853 45.8922 41.3254 45.3321 41.3254C44.772 41.3254 44.3319 40.8853 44.3319 40.3252C44.3319 35.4842 40.1511 31.5434 35.01 31.5434C29.8689 31.5434 25.6881 35.4842 25.6881 40.3252C25.6881 43.2058 26.3282 45.8663 27.5485 48.0268C28.8287 50.3272 29.7089 51.3074 31.2492 52.8677C31.6293 53.2678 31.6293 53.888 31.2492 54.288C31.0292 54.4881 30.7691 54.5881 30.5091 54.5881ZM44.852 50.8873C42.4715 50.8873 40.3711 50.2872 38.6507 49.107C35.6701 47.0866 33.8898 43.8059 33.8898 40.3252C33.8898 39.7651 34.3299 39.325 34.89 39.325C35.4501 39.325 35.8902 39.7651 35.8902 40.3252C35.8902 43.1458 37.3305 45.8063 39.771 47.4466C41.1913 48.4068 42.8516 48.8669 44.852 48.8669C45.3321 48.8669 46.1323 48.8069 46.9324 48.6669C47.4725 48.5669 47.9927 48.9269 48.0927 49.4871C48.1927 50.0272 47.8326 50.5473 47.2725 50.6473C46.1323 50.8673 45.1321 50.8873 44.852 50.8873ZM40.8312 55.0082C40.7512 55.0082 40.6512 54.9882 40.5711 54.9682C37.3905 54.088 35.3101 52.9078 33.1296 50.7673C30.329 47.9867 28.7887 44.286 28.7887 40.3252C28.7887 37.0845 31.5493 34.444 34.95 34.444C38.3507 34.444 41.1113 37.0845 41.1113 40.3252C41.1113 42.4656 42.9716 44.206 45.2721 44.206C47.5726 44.206 49.4329 42.4656 49.4329 40.3252C49.4329 32.7836 42.9316 26.6624 34.93 26.6624C29.2488 26.6624 24.0478 29.823 21.7073 34.724C20.9271 36.3444 20.527 38.2448 20.527 40.3252C20.527 41.8855 20.6671 44.346 21.8673 47.5467C22.0674 48.0668 21.8073 48.6469 21.2872 48.8269C20.7671 49.027 20.187 48.7469 20.0069 48.2468C19.0267 45.6263 18.5466 43.0257 18.5466 40.3252C18.5466 37.9247 19.0067 35.7442 19.9069 33.8439C22.5675 28.2627 28.4687 24.642 34.93 24.642C44.0318 24.642 51.4334 31.6634 51.4334 40.3052C51.4334 43.5458 48.6728 46.1864 45.2721 46.1864C41.8714 46.1864 39.1108 43.5458 39.1108 40.3052C39.1108 38.1647 37.2505 36.4244 34.95 36.4244C32.6495 36.4244 30.7891 38.1647 30.7891 40.3052C30.7891 43.7259 32.1094 46.9265 34.5299 49.327C36.4303 51.2074 38.2507 52.2476 41.0712 53.0278C41.6114 53.1678 41.9114 53.7279 41.7714 54.248C41.6714 54.7081 41.2513 55.0082 40.8312 55.0082Z" fill="white"/>
</svg>
