<svg width="25" height="25" viewBox="0 0 25 25" fill="none" xmlns="http://www.w3.org/2000/svg">
<path d="M2.49971 2.38427C0.613711 4.34327 0.999711 6.42427 0.999711 12.7463C0.999711 17.9963 0.0837109 23.2593 4.87771 24.4983C6.37471 24.8833 19.6387 24.8833 21.1337 24.4963C23.1297 23.9813 24.7537 22.3623 24.9757 19.5393C25.0067 19.1453 25.0067 6.35427 24.9747 5.95227C24.7387 2.94527 22.8877 1.21227 20.4487 0.861267C19.8897 0.780267 19.7777 0.756267 16.9097 0.751267C6.73671 0.756267 4.50671 0.303267 2.49971 2.38427Z" fill="url(#paint0_linear)"/>
<path d="M12.9978 3.89039C9.36681 3.89039 5.91881 3.56739 4.60181 6.94739C4.05781 8.34339 4.13681 10.1564 4.13681 12.7524C4.13681 15.0304 4.06381 17.1714 4.60181 18.5564C5.91581 21.9384 9.39181 21.6144 12.9958 21.6144C16.4728 21.6144 20.0578 21.9764 21.3908 18.5564C21.9358 17.1464 21.8558 15.3604 21.8558 12.7524C21.8558 9.29039 22.0468 7.05539 20.3678 5.37739C18.6678 3.67739 16.3688 3.89039 12.9938 3.89039H12.9978ZM12.2038 5.48739C19.7778 5.47539 20.7418 4.63339 20.2098 16.3304C20.0208 20.4674 16.8708 20.0134 12.9988 20.0134C5.93881 20.0134 5.73581 19.8114 5.73581 12.7484C5.73581 5.60339 6.29581 5.49139 12.2038 5.48539V5.48739ZM17.7278 6.95839C17.1408 6.95839 16.6648 7.43439 16.6648 8.02139C16.6648 8.60839 17.1408 9.08439 17.7278 9.08439C18.3148 9.08439 18.7908 8.60839 18.7908 8.02139C18.7908 7.43439 18.3148 6.95839 17.7278 6.95839ZM12.9978 8.20139C10.4848 8.20139 8.44781 10.2394 8.44781 12.7524C8.44781 15.2654 10.4848 17.3024 12.9978 17.3024C15.5108 17.3024 17.5468 15.2654 17.5468 12.7524C17.5468 10.2394 15.5108 8.20139 12.9978 8.20139ZM12.9978 9.79839C16.9028 9.79839 16.9078 15.7064 12.9978 15.7064C9.09381 15.7064 9.08781 9.79839 12.9978 9.79839Z" fill="#0C7084"/>
<defs>
<linearGradient id="paint0_linear" x1="2.54573" y1="23.2184" x2="24.8512" y2="3.91324" gradientUnits="userSpaceOnUse">
<stop stop-color="white"/>
<stop offset="0.5" stop-color="white"/>
<stop offset="1" stop-color="white"/>
</linearGradient>
</defs>
</svg>
