<svg width="157" height="29" viewBox="0 0 157 29" fill="none" xmlns="http://www.w3.org/2000/svg">
<path d="M14.5 0L17.7555 10.0193L28.2903 10.0193L19.7674 16.2115L23.0229 26.2307L14.5 20.0385L5.97711 26.2307L9.23257 16.2115L0.709681 10.0193L11.2445 10.0193L14.5 0Z" fill="#FEAE2C"/>
<path d="M46.5 0L49.7555 10.0193L60.2903 10.0193L51.7674 16.2115L55.0229 26.2307L46.5 20.0385L37.9771 26.2307L41.2326 16.2115L32.7097 10.0193L43.2445 10.0193L46.5 0Z" fill="#FEAE2C"/>
<path d="M78.5 0L81.7555 10.0193L92.2903 10.0193L83.7674 16.2115L87.0229 26.2307L78.5 20.0385L69.9771 26.2307L73.2326 16.2115L64.7097 10.0193L75.2445 10.0193L78.5 0Z" fill="#FEAE2C"/>
<path d="M110.5 0L113.755 10.0193L124.29 10.0193L115.767 16.2115L119.023 26.2307L110.5 20.0385L101.977 26.2307L105.233 16.2115L96.7097 10.0193L107.245 10.0193L110.5 0Z" fill="#F2F2F2"/>
<path d="M142.5 0L145.755 10.0193L156.29 10.0193L147.767 16.2115L151.023 26.2307L142.5 20.0385L133.977 26.2307L137.233 16.2115L128.71 10.0193L139.245 10.0193L142.5 0Z" fill="#F2F2F2"/>
</svg>
