<svg width="26" height="26" viewBox="0 0 26 26" fill="none" xmlns="http://www.w3.org/2000/svg">
<path d="M18.2327 16.0448H17.0804L16.672 15.6509C18.1014 13.9881 18.962 11.8294 18.962 9.481C18.962 4.24457 14.7174 0 9.481 0C4.24457 0 0 4.24457 0 9.481C0 14.7174 4.24457 18.962 9.481 18.962C11.8294 18.962 13.9881 18.1014 15.6509 16.672L16.0448 17.0804V18.2327L23.3379 25.5112L25.5112 23.3379L18.2327 16.0448V16.0448ZM9.481 16.0448C5.84905 16.0448 2.91723 13.113 2.91723 9.481C2.91723 5.84905 5.84905 2.91723 9.481 2.91723C13.113 2.91723 16.0448 5.84905 16.0448 9.481C16.0448 13.113 13.113 16.0448 9.481 16.0448Z" fill="#02A2AF"/>
</svg>
