<svg width="16" height="16" viewBox="0 0 16 16" fill="none" xmlns="http://www.w3.org/2000/svg">
<path d="M11.0849 9.75472H10.3843L10.136 9.51528C11.0051 8.50434 11.5283 7.19189 11.5283 5.76415C11.5283 2.58057 8.94774 0 5.76415 0C2.58057 0 0 2.58057 0 5.76415C0 8.94774 2.58057 11.5283 5.76415 11.5283C7.19189 11.5283 8.50434 11.0051 9.51528 10.136L9.75472 10.3843V11.0849L14.1887 15.51L15.51 14.1887L11.0849 9.75472V9.75472ZM5.76415 9.75472C3.55604 9.75472 1.77358 7.97226 1.77358 5.76415C1.77358 3.55604 3.55604 1.77358 5.76415 1.77358C7.97226 1.77358 9.75472 3.55604 9.75472 5.76415C9.75472 7.97226 7.97226 9.75472 5.76415 9.75472Z" fill="#02A2AF"/>
</svg>
