<svg width="24" height="25" viewBox="0 0 24 25" fill="none" xmlns="http://www.w3.org/2000/svg">
<path d="M24 0.751465H0V24.7515H24V0.751465Z" fill="white"/>
<path d="M3.18069 18.5419C4.77795 19.5549 6.67264 20.1412 8.70368 20.1412C14.4096 20.1412 19.035 15.5152 19.035 9.80981C19.035 9.66736 19.032 9.52596 19.0266 9.38498C19.2329 9.22257 20.5094 8.19949 20.8223 7.54179C20.8223 7.54179 19.7857 7.97257 18.7712 8.07405C18.7692 8.07405 18.7667 8.07452 18.7647 8.07452C18.7647 8.07452 18.7667 8.07352 18.7702 8.07105C18.8637 8.00859 20.1706 7.11896 20.3475 6.05897C20.3475 6.05897 19.6143 6.4503 18.5878 6.79266C18.4178 6.84912 18.2399 6.90462 18.0565 6.95607C17.3948 6.24987 16.4543 5.80908 15.4102 5.80908C13.4076 5.80908 11.7849 7.43135 11.7849 9.43243C11.7849 9.71481 11.8174 9.98965 11.8788 10.2535C11.599 10.2421 7.33735 10.0031 4.43817 6.49222C4.43817 6.49222 2.70546 8.85767 5.47072 11.2901C5.47072 11.2901 4.63012 11.2566 3.9049 10.8233C3.9049 10.8233 3.63854 13.6889 6.77012 14.4216C6.77012 14.4216 6.15392 14.655 5.17086 14.4886C5.17086 14.4886 5.72061 16.8041 8.50288 17.0205C8.50288 17.0205 6.30279 19.008 3.17969 18.5416L3.18069 18.5419Z" fill="#0C7084"/>
</svg>
